<?xml version="1.0" encoding="utf-8"?>
<!-- Generator: Adobe Illustrator 15.1.0, SVG Export Plug-In . SVG Version: 6.00 Build 0)  -->
<!DOCTYPE svg PUBLIC "-//W3C//DTD SVG 1.1//EN" "http://www.w3.org/Graphics/SVG/1.1/DTD/svg11.dtd">
<svg version="1.1" id="sciknowsoft_logo" xmlns="http://www.w3.org/2000/svg" xmlns:xlink="http://www.w3.org/1999/xlink" x="0px"
	 y="0px" width="501.333px" height="102px" viewBox="0 0 501.333 102" enable-background="new 0 0 501.333 102"
	 xml:space="preserve">
<g id="type">
	<path fill="#485F61" d="M130.483,60.461c0.128,6.675,4.685,7.188,6.289,7.188c4.236,0,6.546-2.504,6.546-6.29
		c0-4.813-4.365-5.903-6.995-6.996c-3.594-1.218-9.305-3.145-9.305-9.753c0-4.943,3.528-9.757,10.009-9.757
		c5.264,0,9.628,4.042,9.564,9.563h-4.491c-0.322-4.301-3.274-5.521-5.264-5.521c-3.594,0-5.327,2.889-5.327,5.265
		c0,3.721,3.722,5.003,6.289,5.838c4.106,1.349,10.012,3.593,10.012,10.848c0.064,6.031-3.595,10.845-11.04,10.845
		c-4.877,0-10.973-3.337-10.781-11.231H130.483z"/>
	<path fill="#485F61" d="M188.95,60.527c-2.247,4.362-6.929,11.166-17.456,11.166c-10.973,0-18.868-8.536-18.868-18.354
		c0-10.14,8.407-18.483,18.868-18.483c6.16,0,14.055,3.08,17.456,11.488h-4.942c-2.822-5.329-7.957-7.447-12.385-7.447
		c-6.868,0-14.504,5.135-14.504,14.315c0,7.892,6.098,14.438,14.504,14.438c7.316,0,10.973-4.431,12.385-7.123H188.95z"/>
	<path fill="#485F61" d="M195.693,35.754h4.492v35.104h-4.492V35.754z M195.693,23.369h4.492v8.085h-4.492V23.369z"/>
	<polygon fill="#485F61" points="211.162,23.368 221.815,23.368 221.815,48.14 221.944,48.14 231.828,35.242 244.471,35.242 
		231.057,50.899 244.086,70.859 232.02,70.859 221.944,53.723 221.815,53.723 221.815,70.859 211.162,70.859 	"/>
	<path fill="#485F61" d="M249.993,35.24h9.947v3.786h0.128c1.093-1.733,3.338-5.004,9.69-5.004c3.402,0,7.189,1.412,9.114,3.079
		c1.925,1.668,4.105,4.492,4.105,11.487v22.269h-10.652V51.414c0-2.505,0-7.382-5.581-7.382c-6.099,0-6.099,5.263-6.099,7.445
		v19.381h-10.653V35.24z"/>
	<path fill="#485F61" d="M308.077,62.002c4.62,0,8.536-3.787,8.536-8.986c0-5.199-3.916-8.984-8.536-8.984
		c-4.619,0-8.536,3.786-8.536,8.984C299.541,58.215,303.458,62.002,308.077,62.002 M308.077,34.084
		c12.963,0,19.188,10.205,19.188,18.932c0,8.729-6.225,18.935-19.188,18.935c-12.964,0-19.188-10.206-19.188-18.935
		C288.888,44.289,295.113,34.084,308.077,34.084"/>
	<polygon fill="#485F61" points="339.077,35.24 344.404,57.381 344.531,57.381 350.374,35.24 359.357,35.24 365.261,57.381 
		365.39,57.381 370.717,35.24 381.69,35.24 370.78,70.858 360.897,70.858 354.927,47.817 354.801,47.817 348.831,70.858 
		338.95,70.858 328.038,35.24 	"/>
	<path fill="#485F61" d="M388.118,60.461c0.128,6.675,4.685,7.188,6.288,7.188c4.235,0,6.549-2.504,6.549-6.29
		c0-4.813-4.366-5.903-6.997-6.996c-3.592-1.218-9.306-3.145-9.306-9.753c0-4.943,3.531-9.757,10.011-9.757
		c5.264,0,9.629,4.042,9.565,9.563h-4.495c-0.321-4.301-3.274-5.521-5.262-5.521c-3.594,0-5.325,2.889-5.325,5.265
		c0,3.721,3.72,5.003,6.288,5.838c4.108,1.349,10.01,3.593,10.01,10.848c0.066,6.031-3.594,10.845-11.038,10.845
		c-4.877,0-10.974-3.337-10.78-11.231H388.118z"/>
	<path fill="#485F61" d="M428.039,67.65c6.802,0,13.858-5.392,13.858-14.567c0-9.243-7.826-14.186-13.858-14.186
		c-6.419,0-13.863,5.263-13.863,14.57C414.175,61.617,420.785,67.65,428.039,67.65 M427.973,34.854
		c10.396,0,18.418,8.795,18.418,18.42c0,9.562-7.892,18.419-18.418,18.419c-10.268,0-18.293-8.664-18.293-18.161
		C409.68,42.428,418.731,34.854,427.973,34.854"/>
	<path fill="#485F61" d="M453.135,39.797h-5.456v-4.042h5.456c0.125-4.877,0.514-13.093,13.479-13.221v4.172
		c-9.114,0-8.988,5.774-8.988,9.049h8.988v4.042h-8.988v31.062h-4.49V39.797z"/>
	<polygon fill="#485F61" points="474.894,23.369 474.894,35.754 467.512,35.754 467.512,39.797 474.894,39.797 474.894,70.859 
		479.385,70.859 479.385,39.797 487.792,39.797 487.792,35.754 479.385,35.754 479.385,23.369 	"/>
</g>
<g id="mark">
	<path fill="#DCCF6D" d="M43.087,48.204c-0.066,0.893-0.831,1.52-1.691,1.416c-0.775-0.061-1.389-0.766-1.327-1.631
		c0.034-0.106,0.062-1.876,0.904-4.715c0.843-2.806,2.692-6.719,6.354-10.08c1.817-1.671,4.061-3.181,6.662-4.247
		c2.591-1.073,5.534-1.697,8.572-1.687c3.029,0,6.167,0.63,9.053,1.928c2.894,1.287,5.533,3.23,7.636,5.628
		c2.104,2.398,3.669,5.247,4.554,8.236c0.892,2.991,1.1,6.106,0.728,9.03c-0.726,5.898-3.908,10.793-7.46,13.764
		c-3.572,3.039-7.384,4.289-10.009,4.762c-2.661,0.466-4.211,0.323-4.208,0.351c-0.005-0.027,1.551,0.067,4.183-0.479
		c2.596-0.546,6.322-1.912,9.72-4.991c3.389-3.01,6.306-7.859,6.82-13.517c0.272-2.802-0.024-5.757-0.947-8.548
		c-0.924-2.796-2.476-5.42-4.503-7.594c-2.032-2.173-4.527-3.891-7.22-4.993c-2.688-1.109-5.566-1.593-8.32-1.507
		c-5.557,0.131-10.416,2.645-13.511,5.717c-3.155,3.087-4.659,6.568-5.321,9.03C43.094,46.575,43.116,48.111,43.087,48.204"/>
	<path fill="#2A8AB9" d="M58.621,55.083c0.736,0.515,1.238,0.684,1.262,0.706c0.418,0.207,0.808,0.723,0.808,1.338
		c0,0.832-0.676,1.506-1.506,1.506c-0.217,0-0.526-0.075-0.609-0.111c-0.109-0.054-0.739-0.335-1.729-1.147
		c-0.977-0.799-2.221-2.185-2.934-4.175c-0.737-1.961-0.848-4.557,0.169-6.917c0.958-2.365,3.069-4.379,5.584-5.196
		c2.509-0.857,5.298-0.482,7.347,0.741c2.09,1.201,3.403,3.146,3.94,4.911c0.56,1.783,0.428,3.363,0.192,4.391
		c-0.238,1.034-0.531,1.57-0.515,1.574c-0.016-0.002,0.234-0.562,0.39-1.598c0.151-1.024,0.145-2.568-0.516-4.208
		c-0.635-1.626-2-3.305-3.938-4.223c-1.917-0.947-4.343-1.049-6.367-0.171c-2.045,0.854-3.583,2.611-4.186,4.517
		c-0.642,1.904-0.386,3.832,0.27,5.231C56.93,53.672,57.894,54.58,58.621,55.083"/>
	<path fill="#64BDC6" d="M55.691,24.263c2.776-0.749,5.913-1.102,9.179-0.807c3.259,0.287,6.643,1.223,9.784,2.871
		c3.139,1.634,6.047,3.977,8.344,6.879c2.301,2.895,3.99,6.333,4.877,9.958c0.89,3.622,0.977,7.427,0.28,11.011
		c-0.693,3.586-2.16,6.936-4.128,9.771c-1.967,2.845-4.448,5.159-7.092,6.861c-2.649,1.712-5.458,2.81-8.118,3.422
		c-5.365,1.226-10.016,0.467-13.008-0.468c-3.026-0.955-4.564-1.946-4.573-1.912c0.004-0.034,1.573,0.918,4.609,1.79
		c3.003,0.852,7.63,1.475,12.859,0.129c2.598-0.669,5.312-1.814,7.841-3.543c2.53-1.725,4.867-4.028,6.688-6.813
		c1.825-2.781,3.145-6.025,3.711-9.456c0.574-3.426,0.395-7.021-0.536-10.412c-0.923-3.393-2.591-6.567-4.804-9.203
		c-2.205-2.648-4.95-4.736-7.888-6.169c-2.935-1.44-6.047-2.216-9.021-2.396c-2.98-0.192-5.816,0.205-8.305,0.946
		c-5.022,1.493-8.528,4.318-10.59,6.544c-2.078,2.26-2.906,3.887-2.983,3.965c-0.344,0.55-0.831,0.804-1.349,0.804
		c-0.833,0-1.51-0.674-1.51-1.51c0-0.338,0.107-0.604,0.28-0.88c0.089-0.091,1.07-1.905,3.47-4.383
		C46.083,28.82,50.098,25.768,55.691,24.263"/>
	<path fill="#D1BF21" d="M48.057,53.117c0.032,0.145,0.079,0.348,0.079,0.483c0.007,0.834-0.674,1.513-1.512,1.513
		c-0.675,0-1.304-0.42-1.514-1.301c0.002-0.086-0.395-1.443-0.42-3.805c-0.02-2.335,0.467-5.75,2.463-9.166
		c1.935-3.399,5.522-6.686,10.172-8.084c2.301-0.711,4.826-0.967,7.313-0.664c2.492,0.3,4.943,1.153,7.091,2.477
		c2.154,1.319,3.999,3.105,5.364,5.156c1.37,2.05,2.253,4.352,2.649,6.637c0.827,4.616-0.431,9.038-2.411,12.09
		c-1.982,3.112-4.549,4.932-6.406,5.89c-1.889,0.967-3.082,1.218-3.07,1.236c-0.011-0.019,1.173-0.317,3.004-1.348
		c1.811-1.023,4.264-2.927,6.068-6.025c1.811-3.044,2.828-7.338,1.875-11.658c-0.461-2.143-1.377-4.268-2.72-6.119
		c-1.342-1.85-3.11-3.426-5.12-4.554c-4.03-2.307-8.984-2.613-12.994-1.151c-4.062,1.398-7.039,4.381-8.588,7.363
		c-1.594,3.002-1.884,5.9-1.795,7.857C47.685,51.924,48.034,52.997,48.057,53.117"/>
	<path fill="#2CA2BE" d="M53.367,59.296c-0.475,0-0.909-0.228-1.193-0.588c-0.215-0.261-0.853-1.027-1.553-2.352
		c-0.839-1.591-1.706-4.093-1.549-7.12c0.12-2.994,1.413-6.492,4.079-9.064c2.599-2.612,6.543-4.125,10.381-3.806
		c1.909,0.146,3.775,0.708,5.408,1.618c1.634,0.901,3.021,2.146,4.083,3.545c2.149,2.811,2.834,6.21,2.558,8.93
		c-0.254,2.764-1.337,4.865-2.25,6.139c-0.803,1.118-1.442,1.697-1.588,1.841c0.079-0.093,0.692-0.687,1.479-1.912
		c0.837-1.309,1.783-3.429,1.887-6.095c0.13-2.639-0.706-5.812-2.834-8.307c-2.077-2.517-5.405-4.196-8.82-4.248
		c-3.42-0.097-6.738,1.408-8.822,3.74c-2.143,2.301-3.036,5.244-3.01,7.689c0.002,2.475,0.809,4.43,1.533,5.651
		c0.737,1.23,1.357,1.816,1.382,1.863c0.188,0.214,0.341,0.58,0.341,0.961C54.879,58.618,54.204,59.296,53.367,59.296"/>
	<path fill="#2CA2BE" d="M91.072,22.955c2.884,3.104,5.506,6.946,7.369,11.405c1.87,4.452,2.976,9.512,2.993,14.752
		c0.034,5.233-1.021,10.648-3.234,15.661c-2.193,5.017-5.526,9.603-9.667,13.275c-4.132,3.679-9.061,6.426-14.251,7.999
		c-5.19,1.582-10.61,1.981-15.709,1.362c-5.109-0.611-9.882-2.262-13.969-4.565c-4.098-2.297-7.502-5.231-10.164-8.319
		c-5.366-6.223-7.613-12.896-8.466-17.509c-0.854-4.668-0.618-7.401-0.667-7.395c0.05-0.008-0.138,2.734,0.794,7.37
		c0.932,4.582,3.289,11.172,8.695,17.22c2.682,3.006,6.084,5.834,10.148,8.017c4.051,2.19,8.75,3.721,13.734,4.229
		c4.982,0.518,10.247,0.034,15.237-1.587c4.993-1.606,9.698-4.341,13.605-7.947c3.917-3.596,7.024-8.045,9.034-12.858
		c2.022-4.812,2.927-9.972,2.812-14.929c-0.104-4.962-1.228-9.707-3.06-13.855c-1.822-4.162-4.345-7.716-7.09-10.57
		c-5.533-5.752-11.826-8.53-16.291-9.764c-4.42-1.207-7.188-1.266-7.464-1.266c-0.113,0-0.392-0.033-0.578-0.11
		c-0.009-0.003-0.001,0-0.011-0.004c-0.542-0.229-0.924-0.767-0.924-1.397c0-0.879,0.755-1.603,1.706-1.507
		c0.181,0.055,3.209,0.088,8.076,1.503c2.418,0.726,5.28,1.833,8.291,3.578C85.026,17.478,88.184,19.845,91.072,22.955"/>
	<path fill="#2A8AB9" d="M104.307,37.916c1.241,4.53,1.847,9.654,1.393,15.001c-0.442,5.336-1.957,10.886-4.63,16.053
		c-2.655,5.163-6.478,9.957-11.229,13.752c-4.739,3.811-10.375,6.613-16.34,8.101c-5.962,1.501-12.234,1.675-18.152,0.555
		c-5.924-1.112-11.475-3.504-16.18-6.736c-4.72-3.229-8.578-7.314-11.421-11.687c-2.858-4.373-4.705-9.02-5.742-13.437
		c-1.041-4.423-1.259-8.616-1.027-12.285c0.241-3.676,0.926-6.825,1.69-9.344c1.563-5.045,3.207-7.616,3.152-7.637
		c0.055,0.018-1.547,2.621-3.026,7.675c-0.722,2.525-1.357,5.671-1.537,9.323c-0.176,3.646,0.107,7.802,1.21,12.158
		c1.09,4.35,2.984,8.903,5.865,13.156c2.863,4.256,6.709,8.198,11.37,11.286c4.65,3.085,10.093,5.327,15.862,6.315
		c5.764,0.999,11.828,0.729,17.555-0.805c5.729-1.527,11.107-4.312,15.588-8.03c4.492-3.704,8.063-8.336,10.516-13.296
		c2.471-4.96,3.819-10.235,4.157-15.294c0.353-5.06-0.298-9.883-1.531-14.128c-1.241-4.256-3.071-7.932-5.05-10.946
		c-1.98-3.019-4.114-5.376-6.011-7.17c-3.838-3.569-6.611-4.998-6.75-5.136c-0.233-0.144-0.915-0.507-0.915-1.411
		c0-0.831,0.675-1.507,1.509-1.507c0.387,0,0.653,0.131,0.995,0.341c0.144,0.147,3.109,1.73,7.166,5.623
		c2.005,1.954,4.249,4.511,6.313,7.769C101.172,29.426,103.061,33.373,104.307,37.916"/>
	<path fill="#2A8AB9" d="M74.142,21.391c3.506,1.438,6.921,3.64,9.834,6.544c2.914,2.895,5.323,6.488,6.868,10.497
		c1.552,4,2.237,8.389,1.968,12.713c-0.262,4.324-1.481,8.571-3.491,12.308c-2.005,3.74-4.79,6.948-7.954,9.414
		c-3.165,2.479-6.72,4.193-10.25,5.172c-3.534,0.984-7.029,1.239-10.201,0.991c-6.393-0.487-11.302-2.94-14.306-5.015
		c-3.036-2.111-4.408-3.75-4.427-3.72c0.019-0.031,1.428,1.574,4.498,3.609c3.04,2.002,7.97,4.315,14.265,4.652
		c3.125,0.173,6.549-0.151,9.979-1.194c3.421-1.029,6.833-2.778,9.845-5.239c3.011-2.464,5.621-5.614,7.461-9.244
		c1.846-3.621,2.917-7.7,3.07-11.812c0.16-4.109-0.582-8.246-2.125-11.97c-1.536-3.735-3.867-7.043-6.644-9.679
		c-2.777-2.647-5.985-4.615-9.254-5.87c-3.265-1.265-6.583-1.823-9.633-1.875c-6.149-0.098-11.085,1.83-14.184,3.596
		c-3.127,1.799-4.63,3.331-4.752,3.394c-0.172,0.148-0.503,0.472-1.103,0.472c-0.833,0-1.51-0.675-1.51-1.508
		c0-0.533,0.256-0.926,0.629-1.252c0.133-0.066,1.839-1.73,5.338-3.645c3.467-1.879,8.948-3.87,15.652-3.606
		C67.044,19.253,70.632,19.939,74.142,21.391"/>
	<path fill="#306CAD" d="M111.048,50.98c-0.183,5.257-1.244,10.936-3.521,16.494c-2.254,5.562-5.719,10.983-10.305,15.612
		c-4.565,4.637-10.245,8.486-16.598,10.96c-6.337,2.491-13.306,3.607-20.183,3.209c-6.88-0.387-13.647-2.3-19.606-5.475
		c-5.971-3.171-11.11-7.585-15.067-12.618c-3.973-5.034-6.741-10.701-8.324-16.334c-1.598-5.637-2.021-11.235-1.654-16.309
		c0.365-5.088,1.53-9.656,3.007-13.505c1.487-3.857,3.275-7.002,4.936-9.45c3.367-4.882,5.985-7.095,5.936-7.129
		c0.049,0.034-2.54,2.288-5.826,7.202c-1.625,2.462-3.358,5.625-4.783,9.477c-1.415,3.845-2.507,8.397-2.799,13.436
		c-0.294,5.031,0.206,10.552,1.858,16.085c1.639,5.526,4.434,11.05,8.396,15.927c3.948,4.881,9.03,9.123,14.889,12.129
		c5.849,3.012,12.446,4.77,19.112,5.055c6.666,0.29,13.378-0.885,19.445-3.366c6.075-2.468,11.468-6.235,15.781-10.737
		c4.326-4.495,7.558-9.711,9.628-15.027c2.087-5.32,3.021-10.726,3.124-15.707c0.106-4.992-0.62-9.564-1.732-13.471
		c-1.106-3.917-2.608-7.168-4.042-9.74c-2.923-5.134-5.425-7.61-5.527-7.806c-0.004-0.005-0.006-0.011-0.013-0.021
		c-0.21-0.256-0.337-0.592-0.337-0.951c0-0.84,0.68-1.517,1.516-1.517c0.538,0,1.006,0.278,1.277,0.7
		c0.619,0.728,2.967,3.38,5.622,8.196c1.49,2.756,3.036,6.237,4.153,10.405C110.531,40.862,111.234,45.712,111.048,50.98"/>
	<path fill="#9AC746" d="M64.874,13.566c0.001,0.001,0.005,0.004,0.008,0.005C64.763,13.514,64.765,13.517,64.874,13.566"/>
	<path fill="#27AFC4" d="M89.133,27.101c2.784,3.295,5.07,7.32,6.478,11.783c1.42,4.456,1.965,9.356,1.413,14.216
		c-0.539,4.861-2.16,9.658-4.708,13.89c-2.544,4.232-6.015,7.887-10.018,10.601c-4,2.729-8.51,4.511-13.016,5.336
		c-4.513,0.838-9.018,0.7-13.103-0.175c-4.101-0.866-7.773-2.458-10.86-4.382c-6.214-3.868-9.896-8.947-11.849-12.641
		c-1.96-3.744-2.485-6.13-2.521-6.109c0.035-0.021,0.609,2.353,2.635,6.047c2.014,3.643,5.778,8.604,11.982,12.302
		c3.076,1.834,6.723,3.33,10.75,4.094c4.02,0.777,8.415,0.822,12.784-0.076c4.363-0.888,8.692-2.701,12.496-5.402
		c3.802-2.696,7.06-6.269,9.413-10.362c2.36-4.093,3.806-8.689,4.228-13.302c0.43-4.617-0.176-9.223-1.592-13.389
		c-1.408-4.174-3.625-7.892-6.275-10.916c-2.655-3.036-5.731-5.375-8.812-7.058c-6.209-3.389-12.268-4.067-16.371-3.922
		c-4.04,0.155-6.329,0.789-6.641,0.917c-0.99,0.398-2.073-0.329-2.073-1.397c0-0.708,0.467-1.338,1.355-1.548
		c0.256-0.04,2.763-0.777,7.296-0.867c4.481-0.073,11.055,0.8,17.68,4.59C83.094,21.21,86.354,23.791,89.133,27.101"/>
</g>
</svg>
